<svg width="10" height="17" viewBox="0 0 10 17" fill="none" xmlns="http://www.w3.org/2000/svg">
<path d="M9.44542 8.12128L2.32522 1.00121C2.16054 0.836401 1.9407 0.745605 1.7063 0.745605C1.47189 0.745605 1.25206 0.836401 1.08738 1.00121L0.563023 1.52544C0.221823 1.86703 0.221823 2.42221 0.563023 2.76328L6.54203 8.74229L0.556389 14.7279C0.391707 14.8927 0.300781 15.1124 0.300781 15.3467C0.300781 15.5813 0.391707 15.801 0.556389 15.9659L1.08074 16.49C1.24555 16.6548 1.46526 16.7456 1.69966 16.7456C1.93407 16.7456 2.1539 16.6548 2.31859 16.49L9.44542 9.36342C9.61049 9.19809 9.70116 8.97734 9.70064 8.74268C9.70116 8.5071 9.61049 8.28649 9.44542 8.12128Z" fill="#666666"/>
</svg>
