<svg width="15" height="15" viewBox="0 0 15 15" fill="none" xmlns="http://www.w3.org/2000/svg">
<path d="M0.856934 7.86231C0.856934 8.37639 1.28148 8.79561 1.79024 8.79561H6.93026V13.9356C6.93026 14.4429 7.34795 14.8675 7.86206 14.8675C8.37615 14.8675 8.80222 14.4429 8.80222 13.9356V8.79561H13.9354C14.4426 8.79561 14.8672 8.37639 14.8672 7.86231C14.8672 7.34819 14.4426 6.92213 13.9354 6.92213H8.80222V1.79048C8.80222 1.28173 8.37615 0.857178 7.86206 0.857178C7.34795 0.857178 6.93026 1.28173 6.93026 1.79048V6.92213H1.79024C1.28148 6.92213 0.856934 7.34819 0.856934 7.86231Z" fill="white"/>
</svg>
