<svg width="14" height="22" viewBox="0 0 14 22" fill="none" xmlns="http://www.w3.org/2000/svg">
<path d="M1.40508 21.2857C1.93656 21.2857 2.27311 21.021 3.11578 20.2361L6.91523 16.6489C6.96263 16.6037 7.04583 16.6037 7.08518 16.6489L10.8864 20.2378C11.7309 21.0227 12.062 21.2857 12.5953 21.2857C13.3764 21.2857 13.8574 20.7828 13.8574 19.9404V3.56017C13.8574 1.69797 12.8416 0.714279 10.9094 0.714279H3.09099C1.15705 0.714279 0.143066 1.69797 0.143066 3.56017V19.9404C0.143066 20.7828 0.623993 21.2857 1.40508 21.2857ZM2.33724 18.2394C2.20308 18.3675 2.04927 18.3265 2.04927 18.1455V3.6601C2.04927 2.90988 2.44404 2.53459 3.24402 2.53459H10.7645C11.5564 2.53459 11.9512 2.90988 11.9512 3.6601V18.1455C11.9512 18.3265 11.8036 18.3675 11.6631 18.2394L7.64183 14.5162C7.23329 14.1406 6.76711 14.1406 6.35857 14.5162L2.33724 18.2394Z" fill="#06253C"/>
</svg>
