<svg width="20" height="20" viewBox="0 0 20 20" fill="none" xmlns="http://www.w3.org/2000/svg">
<path d="M2.67146 9.28768H7.19824C7.89467 9.28768 8.41699 9.11357 8.76521 8.76536C9.12068 8.41714 9.29841 7.88031 9.29841 7.15487V2.70425C9.29841 1.98606 9.12068 1.45286 8.76521 1.10464C8.41699 0.749176 7.89467 0.571442 7.19824 0.571442H2.67146C1.97503 0.571442 1.44908 0.749176 1.09361 1.10464C0.745396 1.45286 0.571289 1.98606 0.571289 2.70425V7.15487C0.571289 7.88031 0.745396 8.41714 1.09361 8.76536C1.44908 9.11357 1.97503 9.28768 2.67146 9.28768ZM2.69322 7.70983C2.51186 7.70983 2.37765 7.66631 2.2906 7.57925C2.20354 7.48495 2.16002 7.34348 2.16002 7.15487V2.70425C2.16002 2.51564 2.20354 2.3778 2.2906 2.29075C2.37765 2.19644 2.51186 2.14929 2.69322 2.14929H7.1656C7.34696 2.14929 7.48117 2.19644 7.56822 2.29075C7.66253 2.3778 7.70968 2.51564 7.70968 2.70425V7.15487C7.70968 7.34348 7.66253 7.48495 7.56822 7.57925C7.48117 7.66631 7.34696 7.70983 7.1656 7.70983H2.69322ZM13.0417 9.28768H17.5685C18.2649 9.28768 18.7872 9.11357 19.1355 8.76536C19.4909 8.41714 19.6687 7.88031 19.6687 7.15487V2.70425C19.6687 1.98606 19.4909 1.45286 19.1355 1.10464C18.7872 0.749176 18.2649 0.571442 17.5685 0.571442H13.0417C12.3453 0.571442 11.8193 0.749176 11.4639 1.10464C11.1157 1.45286 10.9415 1.98606 10.9415 2.70425V7.15487C10.9415 7.88031 11.1157 8.41714 11.4639 8.76536C11.8193 9.11357 12.3453 9.28768 13.0417 9.28768ZM13.0744 7.70983C12.8857 7.70983 12.7479 7.66631 12.6609 7.57925C12.5738 7.48495 12.5303 7.34348 12.5303 7.15487V2.70425C12.5303 2.51564 12.5738 2.3778 12.6609 2.29075C12.7479 2.19644 12.8857 2.14929 13.0744 2.14929H17.5576C17.7317 2.14929 17.8623 2.19644 17.9494 2.29075C18.0364 2.3778 18.0799 2.51564 18.0799 2.70425V7.15487C18.0799 7.34348 18.0364 7.48495 17.9494 7.57925C17.8623 7.66631 17.7317 7.70983 17.5576 7.70983H13.0744ZM2.67146 19.6579H7.19824C7.89467 19.6579 8.41699 19.4838 8.76521 19.1356C9.12068 18.7874 9.29841 18.2542 9.29841 17.536V13.0745C9.29841 12.3563 9.12068 11.8231 8.76521 11.4749C8.41699 11.1267 7.89467 10.9526 7.19824 10.9526H2.67146C1.97503 10.9526 1.44908 11.1267 1.09361 11.4749C0.745396 11.8231 0.571289 12.3563 0.571289 13.0745V17.536C0.571289 18.2542 0.745396 18.7874 1.09361 19.1356C1.44908 19.4838 1.97503 19.6579 2.67146 19.6579ZM2.69322 18.091C2.51186 18.091 2.37765 18.0438 2.2906 17.9495C2.20354 17.8552 2.16002 17.7174 2.16002 17.536V13.0854C2.16002 12.8968 2.20354 12.7589 2.2906 12.6719C2.37765 12.5776 2.51186 12.5304 2.69322 12.5304H7.1656C7.34696 12.5304 7.48117 12.5776 7.56822 12.6719C7.66253 12.7589 7.70968 12.8968 7.70968 13.0854V17.536C7.70968 17.7174 7.66253 17.8552 7.56822 17.9495C7.48117 18.0438 7.34696 18.091 7.1656 18.091H2.69322ZM13.0417 19.6579H17.5685C18.2649 19.6579 18.7872 19.4838 19.1355 19.1356C19.4909 18.7874 19.6687 18.2542 19.6687 17.536V13.0745C19.6687 12.3563 19.4909 11.8231 19.1355 11.4749C18.7872 11.1267 18.2649 10.9526 17.5685 10.9526H13.0417C12.3453 10.9526 11.8193 11.1267 11.4639 11.4749C11.1157 11.8231 10.9415 12.3563 10.9415 13.0745V17.536C10.9415 18.2542 11.1157 18.7874 11.4639 19.1356C11.8193 19.4838 12.3453 19.6579 13.0417 19.6579ZM13.0744 18.091C12.8857 18.091 12.7479 18.0438 12.6609 17.9495C12.5738 17.8552 12.5303 17.7174 12.5303 17.536V13.0854C12.5303 12.8968 12.5738 12.7589 12.6609 12.6719C12.7479 12.5776 12.8857 12.5304 13.0744 12.5304H17.5576C17.7317 12.5304 17.8623 12.5776 17.9494 12.6719C18.0364 12.7589 18.0799 12.8968 18.0799 13.0854V17.536C18.0799 17.7174 18.0364 17.8552 17.9494 17.9495C17.8623 18.0438 17.7317 18.091 17.5576 18.091H13.0744Z" fill="#06253C"/>
</svg>
